PathFileType	4	(X/Y/Z)	C:\Users\WrightLab\Desktop\Jo\P1_boxCal27.trc
DataRate	CameraRate	NumFrames	NumMarkers	Units	OrigDataRate	OrigDataStartFrame	OrigNumFrames
100.00	100.00	       16	19	mm	100.00	291	       465
Frame#	Time	Headset_Front			Headset_Back			Headset_Left			Headset_Right			Left_Shoulder			Right_Shoulder			Sternum			C7			Left Elbow			Right Elbow			Left Wrist			Right Wrist			Left ASIS			Right ASIS			S2			Left Knee			Right Knee			Left Ankle			Right Ankle			
		X1	Y1	Z1	X2	Y2	Z2	X3	Y3	Z3	X4	Y4	Z4	X5	Y5	Z5	X6	Y6	Z6	X7	Y7	Z7	X8	Y8	Z8	X9	Y9	Z9	X10	Y10	Z10	X11	Y11	Z11	X12	Y12	Z12	X13	Y13	Z13	X14	Y14	Z14	X15	Y15	Z15	X16	Y16	Z16	X17	Y17	Z17	X18	Y18	Z18	X19	Y19	Z19	

291	2.900	5.65933	1413.53662	1654.37109				185.55937	1484.86755	1577.96375	-32.63868	1457.11487	1519.08484	319.62585	1313.79700	1512.58899	-39.54276	1308.33252	1389.38977	85.54926	1205.72742	1567.91028	187.07628	1318.77075	1349.57385	446.25287	1013.85443	1537.98865	-89.74527	1050.66846	1270.18677	499.29068	858.49408	1679.40491	-197.21593	847.71484	1227.53845	200.18173	929.96692	1602.89404	8.06787	925.70007	1547.21741	193.32637	936.26587	1267.71875	335.45370	488.61316	1438.99548	-20.57488	533.50714	1562.18005	378.71399	141.61794	1338.59802	350.51395	117.33172	1392.89197	
292	2.910	1.39886	1412.46057	1661.01025				182.12405	1483.85156	1587.63745				317.15121	1313.24084	1523.07690	-39.98237	1305.87122	1396.37781	83.00076	1203.91211	1575.54736	185.58322	1317.87268	1358.42371	444.79471	1013.77435	1553.95923	-87.75081	1048.96033	1275.43384	492.53186	859.02783	1698.68628	-192.40018	846.13434	1227.45422	197.62643	930.04248	1616.57471	6.00916	923.68890	1554.70801	192.53825	935.08386	1276.49243	334.38040	488.54312	1445.55151	-19.99142	531.16528	1568.74280	378.11093	142.22369	1338.68726	289.92075	105.70480	1411.84814	
293	2.920	-2.80255	1410.81836	1667.27063				178.68228	1482.66858	1595.81677				314.43417	1312.46655	1533.84814	-42.50720	1303.78223	1403.20825	80.03566	1202.14319	1584.19055	184.58505	1317.11951	1367.69995	442.39639	1013.79803	1570.30383	-86.39725	1047.30029	1280.63770	487.15298	861.97119	1717.58875	-188.19017	844.92505	1228.84998	195.02412	924.71686	1619.34167	3.42534	920.62140	1563.55640	192.39926	935.35358	1284.53235	333.13889	487.45267	1451.10681	-19.92900	527.22418	1573.13623	377.31293	142.65048	1338.33447				
294	2.930	-7.53932	1410.72546	1674.80615				174.32564	1481.69788	1604.81177				311.70755	1311.47180	1544.01184	-44.05753	1302.40784	1407.69458	76.62043	1200.19165	1592.19006	183.08017	1315.87231	1376.20056	439.63467	1014.01874	1587.17456	-85.17242	1045.36523	1286.99548	479.70474	861.79803	1737.37109	-183.09087	843.54926	1230.68994	193.23625	923.14459	1627.79761	0.71088	917.84875	1571.86560	190.71477	934.20648	1293.73779	332.91855	485.89789	1456.30139	-20.36514	524.41815	1579.35193	377.68234	143.72209	1338.55823	350.98636	118.27347	1394.73792	
295	2.940	-11.48451	1409.21033	1681.21130				170.42383	1480.40234	1613.44824				308.88699	1310.59192	1553.61548	-45.36172	1299.13257	1416.95020	73.77181	1198.36987	1600.46692	181.32430	1314.43567	1385.68896	436.31223	1014.21399	1603.96521	-84.30618	1043.48303	1293.36963	472.89127	862.96887	1753.82349	-179.31462	841.91138	1232.97949	190.96402	920.15253	1635.74719	-1.52985	916.22687	1580.36499	189.43103	932.61676	1302.92981	332.05142	485.20129	1461.99316	-21.90590	520.27887	1583.64819	377.69357	144.80559	1339.87097	350.98636	118.27347	1394.73792	
296	2.950	-16.71742	1408.23645	1689.77673				167.37700	1479.39954	1621.24585				305.67383	1309.77222	1563.82483	-47.49140	1297.36328	1424.11035	69.94457	1197.01746	1609.39355	179.59087	1313.05872	1394.01855	430.63107	1013.53094	1620.27588	-82.43692	1041.27942	1300.18262	464.77005	863.78320	1770.06384	-174.71220	840.23682	1236.02197	188.17987	918.38458	1646.14832	-4.30780	914.67566	1589.81995	188.15762	932.39459	1311.67786	331.24670	484.81198	1466.98328	-23.33232	516.33179	1589.90857	378.20963	145.71538	1341.05762	352.16882	116.13705	1394.49670	
297	2.960	-21.28083	1407.19067	1695.89661				163.07278	1477.68506	1629.61951				302.06137	1308.86682	1572.72375	-50.41306	1295.35388	1430.68994	67.06361	1195.58496	1617.37549	177.11012	1311.31433	1404.05945	424.55408	1013.92584	1636.41626	-82.14062	1039.65393	1307.29321	456.93695	864.73492	1786.31201	-170.32133	838.77740	1239.14392	186.04659	916.06494	1653.26953	-7.64452	913.16760	1599.85010	186.07332	931.42401	1321.73804	330.33188	483.65884	1471.96497	-25.67418	512.65295	1595.83765	378.12274	146.79485	1342.47766	351.49796	118.54482	1395.92761	
298	2.970	-26.46086	1405.88745	1701.88892				158.89676	1476.18408	1637.71887				298.24936	1308.04822	1582.13037	-53.30340	1294.34509	1436.73828	63.10938	1194.54150	1625.25293	174.74498	1309.15112	1413.39099	417.93646	1014.01782	1651.45520	-81.11024	1037.15283	1314.32849	448.68442	865.71704	1803.33875	-166.16402	836.73218	1243.26685	182.70670	915.64789	1664.40674	-10.38862	910.83008	1607.70374	184.01463	929.99768	1330.57068	329.67010	484.02786	1478.34363	-27.86399	508.45883	1601.32727	378.24261	147.41106	1342.55725	351.81317	117.67582	1395.53967	
299	2.980	-31.19470	1404.74487	1707.51208				153.93288	1474.90894	1645.28162				294.53424	1306.66370	1591.58667	-55.99812	1290.45886	1447.41492	59.55082	1193.30078	1635.49255	171.57674	1307.87305	1420.84497	411.27274	1013.22736	1667.00769	-81.00119	1035.26514	1321.25354	440.91867	865.12683	1816.93213	-161.65271	834.24207	1247.73608	180.66130	914.17987	1672.48010	-13.08125	909.95941	1617.66577	181.29597	928.45013	1340.80652	328.74265	483.53427	1484.23621	-31.06988	504.69754	1607.69128	377.61761	149.10347	1344.47302	352.63690	117.06938	1395.90137	
300	2.990	-36.41226	1404.93030	1715.76416				150.09239	1473.97253	1653.50659				290.29703	1305.82202	1600.58594	-59.13930	1289.56995	1453.41931	55.89160	1191.08997	1640.77588	168.36482	1305.93335	1429.59985	404.12625	1012.68274	1680.76147	-81.21605	1033.28638	1328.17273	431.92175	865.42462	1831.73206	-158.36682	832.26410	1252.15198	177.12363	914.40320	1683.92310	-15.21328	908.64069	1626.36902	177.34837	926.13538	1351.38977	327.13589	482.37808	1488.03748	-34.82460	501.94904	1615.45544	377.03174	150.61938	1345.61377	34.75618	180.12701	1852.39624	
301	3.000	-41.94815	1404.29272	1722.98523				145.22044	1471.53113	1658.98206				286.03299	1304.95618	1609.82947	-63.42043	1287.13171	1461.01685	51.99318	1190.26807	1649.31482	164.43100	1303.61340	1438.07825	396.56131	1011.75171	1693.47900	-80.90313	1030.79822	1335.70056	422.75726	866.24469	1846.99695	-155.13261	829.77557	1257.01440	174.37766	914.78448	1693.44995	-17.01840	907.34882	1635.28625	173.91838	924.05206	1362.07373	326.90472	482.45911	1494.83655	-38.45946	500.09763	1624.66162	376.72018	151.93555	1345.32727	352.63690	117.06938	1395.90137	
302	3.010	-47.58080	1403.91479	1728.49048				140.07219	1471.36487	1667.85706				281.43375	1304.00171	1618.41077	-67.76250	1285.86682	1466.94482	47.58395	1189.69250	1659.04858	160.25511	1301.37988	1446.82166	389.94049	1010.65045	1706.70081	-81.65909	1028.02075	1342.36060	414.82220	865.50543	1858.75623	-152.25238	826.50134	1263.71729	171.06628	913.65790	1703.17822	-19.59340	904.35657	1640.98718	170.83528	921.97821	1372.73914	324.69202	483.25558	1501.55518	-41.74340	498.99420	1636.10962	376.13455	154.99651	1346.59387	21.71603	178.07405	1873.47510	
303	3.020	-53.00069	1403.50610	1735.89880				135.60655	1469.94824	1674.51697				276.61563	1302.95154	1626.57300	-71.72752	1282.33521	1476.68469	43.30580	1188.82849	1667.95422	156.44371	1299.64941	1455.76282	383.90170	1009.05896	1717.99438	-83.00579	1025.99219	1350.03796	406.01712	865.08264	1870.92151	-149.31566	823.95605	1269.84375	167.78091	913.82300	1713.72192	-22.65366	903.26074	1650.70447	167.06770	919.35651	1383.16028	324.38821	483.61224	1507.37341	-45.36484	498.50397	1646.30750	375.48746	157.09099	1347.72937	17.21000	172.82727	1879.74585	
304	3.030	-58.50074	1403.98230	1743.87170				130.29253	1468.49524	1682.16443				271.42068	1302.22034	1635.53003	-75.49632	1280.48315	1484.98181	38.26661	1188.04089	1676.70886	151.42604	1297.57190	1464.02319	377.40204	1009.33099	1729.21252	-83.56882	1022.95184	1357.86975	396.64554	864.08643	1882.34534	-147.33456	820.48517	1276.43652	164.49049	912.65314	1722.76538	-26.01132	902.04974	1660.91052	163.00508	917.11353	1392.57349	321.72504	483.44254	1514.86035	-49.67344	498.26880	1656.90161	374.81567	159.74944	1349.41309	12.89540	166.95755	1885.07275	
305	3.040	-64.63300	1403.17041	1749.66248				125.11837	1467.41638	1689.11841				266.63135	1301.11157	1644.58972	-81.44186	1278.86072	1491.09253	32.82733	1187.03894	1685.28650	146.88261	1295.73645	1471.83838	371.75864	1006.19330	1737.54187	-84.98564	1020.29797	1366.28369	387.84204	862.71985	1894.78052	-146.54842	817.54871	1284.44604	160.17613	913.16656	1733.87402	-29.18553	900.66119	1669.87244	160.53554	915.07806	1404.65771	320.02289	483.16464	1522.50024	-53.90777	497.91486	1668.74158	373.83969	163.21986	1351.22375	8.45791	161.12376	1889.25391	
306	3.050	-70.36868	1403.66980	1757.12939				119.35301	1467.23535	1697.14685				260.99103	1300.31201	1652.99768	-86.43968	1277.54321	1497.83948	26.97190	1186.26868	1693.59802	141.75075	1294.32104	1481.20752	364.79025	1004.32007	1744.28198	-87.02879	1017.82166	1374.46265	378.54401	861.84821	1905.21570	-145.33694	813.77698	1293.37183	156.02176	912.84314	1744.51233	-33.50576	899.69690	1680.82361	156.39833	913.22925	1414.43640	319.47531	483.79095	1533.00281	-58.61872	496.55331	1680.77612	373.55978	165.84195	1354.51978	4.81716	155.05820	1892.22156	
